# xmcd
#
# Track frame offsets: 
#        150
#        12742
#        21862
#        32596
#        40872
#        54764
#        67261
#        80530
#        92965
#        104971
#        120064
#
# Disc length: 1739 seconds
#
# Revision: 0
# Processed by: cddbd v1.5.2PL0 Copyright (c) Steve Scherf et al.
# Submitted via: ExactAudioCopy v1.0b3
#
DISCID=8e06c90b
DTITLE=Andi's Blues Orchester - Allegro Boogisono
DYEAR=2013
DGENRE=Blues
TTITLE0=Can't Be Satisfied
TTITLE1=Can't Get Stuff No More
TTITLE2=Dust My Broom
TTITLE3=Keep On Moving
TTITLE4=Everyday I Have The Blues
TTITLE5=Jitterbug Swing
TTITLE6=Pretty Girl
TTITLE7=Drinkin' Blues
TTITLE8=Terraplane Blues
TTITLE9=Going Up The Country
TTITLE10=Beach Song
EXTD=
EXTT0=
EXTT1=
EXTT2=
EXTT3=
EXTT4=
EXTT5=
EXTT6=
EXTT7=
EXTT8=
EXTT9=
EXTT10=
PLAYORDER=
